<svg xmlns="http://www.w3.org/2000/svg" width="200" height="56" fill="none" viewBox="0 0 200 56"><g clip-path="url(#a)"><path fill="#274c5b" d="M70.395 27.22v1.28q0 3.08-.835 5.53-.836 2.448-2.357 4.174a10.2 10.2 0 0 1-3.637 2.616q-2.096.91-4.657.91-2.541 0-4.657-.91a10.4 10.4 0 0 1-3.637-2.616q-1.54-1.725-2.393-4.175-.835-2.45-.835-5.53v-1.28q0-3.098.835-5.529.835-2.449 2.356-4.175a10.3 10.3 0 0 1 3.637-2.634q2.115-.91 4.657-.91 2.561 0 4.657.91a10.1 10.1 0 0 1 3.637 2.634q1.54 1.726 2.375 4.175.853 2.43.853 5.53m-5.623 1.28v-1.317q0-2.152-.39-3.786-.388-1.632-1.15-2.746-.76-1.113-1.855-1.67-1.095-.575-2.505-.575t-2.505.575q-1.076.557-1.837 1.67-.742 1.114-1.132 2.746-.39 1.633-.39 3.786V28.5q0 2.133.39 3.785.39 1.633 1.15 2.765.762 1.113 1.856 1.688 1.095.576 2.505.575 1.41 0 2.505-.575t1.837-1.688q.742-1.132 1.132-2.765.39-1.651.39-3.785m14.64-2.839v15.697h-5.344V21.282h5.029zm6.049-4.509-.093 4.954a13 13 0 0 0-.946-.092 10 10 0 0 0-.983-.056q-1.132 0-1.967.297a3.5 3.5 0 0 0-1.373.835q-.539.556-.817 1.354a6.7 6.7 0 0 0-.297 1.819l-1.076-.334q0-1.95.39-3.581.39-1.652 1.132-2.876.76-1.226 1.855-1.893 1.095-.668 2.505-.668.445 0 .91.074.463.056.76.167m14.862.13h4.843V40.69q0 2.747-1.225 4.658-1.206 1.929-3.377 2.913-2.171 1.002-5.046 1.002-1.263 0-2.672-.334a10.7 10.7 0 0 1-2.672-1.04 7.1 7.1 0 0 1-2.115-1.78l2.356-3.155a6.7 6.7 0 0 0 2.152 1.67q1.225.612 2.71.612 1.446 0 2.449-.538a3.56 3.56 0 0 0 1.54-1.54q.537-1.002.538-2.43V25.92zm-13.508 10.28v-.39q0-2.301.557-4.175.575-1.893 1.614-3.247a7.34 7.34 0 0 1 2.56-2.097q1.505-.742 3.396-.742 2.004 0 3.359.742t2.226 2.116q.873 1.354 1.355 3.21a29 29 0 0 1 .779 4.026v.853a24 24 0 0 1-.835 3.897q-.557 1.8-1.466 3.154a6.5 6.5 0 0 1-2.263 2.078q-1.336.742-3.192.742-1.855 0-3.358-.76a7.5 7.5 0 0 1-2.542-2.134q-1.058-1.374-1.633-3.229-.557-1.855-.557-4.045m5.344-.39v.39q0 1.242.241 2.319.242 1.076.743 1.91.52.817 1.28 1.281.78.445 1.837.445 1.466 0 2.393-.612.928-.63 1.392-1.725t.538-2.524v-2.43q-.037-1.17-.315-2.097-.279-.947-.78-1.614a3.4 3.4 0 0 0-1.299-1.04q-.797-.37-1.892-.37-1.057 0-1.837.482-.76.465-1.28 1.28-.501.816-.761 1.93a10.3 10.3 0 0 0-.26 2.375m27.999 5.659v-8.943q0-.965-.315-1.652a2.35 2.35 0 0 0-.984-1.094q-.649-.39-1.688-.39-.89 0-1.54.315a2.23 2.23 0 0 0-1.002.872q-.353.557-.353 1.318h-5.343q0-1.281.593-2.43.594-1.152 1.726-2.023 1.132-.891 2.69-1.392 1.578-.501 3.526-.501 2.337 0 4.156.78 1.819.779 2.857 2.337 1.059 1.56 1.058 3.897v8.59q0 1.651.204 2.71.204 1.038.594 1.818v.315h-5.399q-.39-.816-.594-2.04a17 17 0 0 1-.186-2.487m.705-7.7.037 3.024h-2.987q-1.057 0-1.837.241-.779.242-1.28.687a2.65 2.65 0 0 0-.742 1.002 3.5 3.5 0 0 0-.223 1.262q0 .686.315 1.243.316.537.91.853.593.297 1.391.297 1.206 0 2.097-.482.89-.483 1.373-1.188.5-.705.52-1.336l1.41 2.264a9 9 0 0 1-.817 1.577 7.4 7.4 0 0 1-1.28 1.54q-.78.705-1.874 1.17-1.095.444-2.598.444-1.91 0-3.469-.76-1.54-.78-2.45-2.134-.89-1.374-.89-3.117 0-1.578.593-2.802a5.5 5.5 0 0 1 1.745-2.06q1.168-.853 2.913-1.28 1.744-.445 4.045-.445zm14.028-3.563v15.79h-5.344V21.282h5.01zm-.78 5.047h-1.447q0-2.226.575-4.008.576-1.8 1.615-3.061a6.9 6.9 0 0 1 2.467-1.948q1.447-.687 3.229-.687 1.41 0 2.579.408a4.94 4.94 0 0 1 2.004 1.3q.853.89 1.299 2.355.464 1.466.464 3.582v12.802h-5.381v-12.82q0-1.335-.371-2.078-.372-.742-1.095-1.04-.706-.315-1.744-.315-1.077 0-1.874.427-.78.427-1.299 1.188a5.6 5.6 0 0 0-.761 1.744 8.6 8.6 0 0 0-.26 2.152m22.489-9.333v20.076h-5.363V21.282zm-5.697-5.232q0-1.17.817-1.93.816-.76 2.189-.76 1.355 0 2.171.76.835.76.835 1.93 0 1.168-.835 1.93-.816.76-2.171.76-1.373 0-2.189-.76-.817-.762-.817-1.93m18.407 21.505q.983 0 1.744-.371.76-.39 1.187-1.077.446-.705.464-1.651h5.028q-.018 2.115-1.131 3.767-1.114 1.632-2.988 2.579-1.874.927-4.193.927-2.338 0-4.082-.779-1.726-.78-2.876-2.152-1.15-1.392-1.726-3.229-.575-1.855-.575-3.97v-.538q0-2.135.575-3.971.576-1.855 1.726-3.229a7.9 7.9 0 0 1 2.876-2.17q1.726-.78 4.045-.78 2.468 0 4.323.946a7.05 7.05 0 0 1 2.932 2.71q1.076 1.743 1.094 4.137h-5.028a4.2 4.2 0 0 0-.427-1.818 3.07 3.07 0 0 0-1.15-1.3q-.742-.5-1.837-.5-1.168 0-1.911.5a3.2 3.2 0 0 0-1.151 1.337 6.7 6.7 0 0 0-.575 1.91 16 16 0 0 0-.148 2.228v.538q0 1.168.148 2.245.149 1.076.557 1.91.426.836 1.169 1.318.742.483 1.93.483m16.866-24.715v28.518h-5.344V12.84zm12.654 8.442-8.721 9.946-4.675 4.73-1.949-3.858 3.711-4.713 5.214-6.105zm-5.548 20.076-5.937-9.277 3.692-3.229 8.405 12.506z"/><path stroke="#7eb693" stroke-miterlimit="10" stroke-width="2" d="M1.85 41.927h34.881m-30.94 6.43h27m-14-47v14m.075-.714v26.431M29.925 4.41l-11.06 11.084m15.314-6.82L18.866 24.02m17.865-8.526L18.866 32.547m18.716-9.378L18.866 41.927m18.716-10.233L27.373 41.926M1 31.694l10.209 10.232M8.657 4.41l10.209 11.084M4.403 8.674 18.866 24.02M1.85 14.643l17.016 17.905M1 22.315l17.866 18.758m.425 13.643C9.191 54.716 1 46.264 1 35.836V19.88C1 9.454 9.19 1 19.291 1c10.103 0 18.291 8.454 18.291 18.88v15.955c.002 10.429-8.188 18.88-18.291 18.88Z"/></g><defs><clipPath id="a"><path fill="#fff" d="M0 0h200v56H0z"/></clipPath></defs></svg>